<svg width="80" height="30" viewBox="0 0 80 30" fill="none" xmlns="http://www.w3.org/2000/svg">
<path d="M19.1099 15.885C19.1791 15.9845 19.1791 16.0841 19.1099 16.1836C19.0753 16.25 18.9195 16.3993 18.6425 16.6316C18.4348 16.8308 18.1752 17.0299 17.8636 17.229C17.552 17.4281 17.2404 17.6272 16.9289 17.8263C16.6519 18.0254 16.375 18.1914 16.098 18.3241C15.8211 18.4569 15.6133 18.5398 15.4749 18.573C15.2671 18.6394 15.094 18.6726 14.9556 18.6726C14.8171 18.6394 14.6094 18.5896 14.3324 18.5232C13.5362 18.1914 13.1554 17.677 13.19 16.9801L13.2419 16.3827L12.2033 17.2788C11.4071 17.9757 10.8186 18.3905 10.4377 18.5232C10.0915 18.6228 9.69342 18.49 9.24337 18.125C9.07027 17.9923 8.96642 17.8761 8.9318 17.7765C8.89718 17.677 8.89718 17.4447 8.9318 17.0796C8.96642 16.8142 9.07027 16.3661 9.24337 15.7356C9.45109 15.0719 9.72804 14.2588 10.0742 13.2965L11.1128 10.3595L9.55494 11.9027C8.65484 12.7655 7.75474 13.7279 6.85464 14.7898C5.95453 15.8186 4.95057 17.0796 3.84275 18.573C3.32346 19.2367 2.90803 19.7511 2.59645 20.1162C2.3195 20.4812 2.09447 20.7467 1.92138 20.9126C1.74828 21.0785 1.59249 21.1615 1.45401 21.1615C1.31554 21.1615 1.14244 21.1283 0.934723 21.0619C0.311574 20.8296 0 20.4148 0 19.8175C0 19.4524 0.103858 18.9215 0.311574 18.2246C0.484671 17.4945 0.709697 16.7312 0.986652 15.9347C1.29823 15.1383 1.6098 14.3916 1.92138 13.6947C2.23295 12.9646 2.5099 12.4336 2.75224 12.1018C3.09843 11.604 3.56579 11.5708 4.15432 12.0022C4.56976 12.3009 4.62169 12.6659 4.31011 13.0973C4.24087 13.1637 4.1024 13.4458 3.89468 13.9436C3.72158 14.4414 3.53118 14.9723 3.32346 15.5365C3.11574 16.0675 2.94265 16.5653 2.80417 17.0299C2.66569 17.4613 2.61376 17.6604 2.64838 17.6272C2.683 17.594 2.80417 17.4447 3.01189 17.1792C3.2196 16.9137 3.47925 16.5985 3.79082 16.2334C4.44859 15.4369 5.12367 14.6405 5.81605 13.844C6.54306 13.0476 7.21814 12.3175 7.84129 11.6538C8.49905 10.99 9.08758 10.4259 9.60687 9.96128C10.1262 9.49668 10.5243 9.19801 10.8012 9.06527C11.2167 8.83297 11.6148 8.83297 11.9956 9.06527C12.411 9.29757 12.6188 9.64602 12.6188 10.1106C12.6188 10.4425 12.4976 11.0232 12.2553 11.8529C12.0475 12.6825 11.736 13.6947 11.3205 14.8894L10.7493 16.7312L11.6321 15.9347C12.2899 15.3706 12.7919 14.9889 13.1381 14.7898C13.4842 14.5575 13.7439 14.4746 13.917 14.5409C14.4709 14.7069 14.7998 14.906 14.9036 15.1383C15.0075 15.3706 14.9383 15.8684 14.6959 16.6316C14.6267 16.9635 14.5574 17.2456 14.4882 17.4779C14.419 17.7102 14.4017 17.8263 14.4363 17.8263C14.4709 17.8595 14.5921 17.8263 14.7998 17.7268C15.0421 17.6272 15.3018 17.4945 15.5787 17.3285C15.8903 17.1626 16.2019 16.9801 16.5134 16.781C16.8596 16.5819 17.1539 16.3993 17.3962 16.2334C17.9155 15.8684 18.279 15.6692 18.4867 15.6361C18.6945 15.5697 18.9022 15.6527 19.1099 15.885Z" fill="white"/>
<path d="M36.7289 6.27765C36.9366 6.54314 37.075 6.84181 37.1443 7.17367C37.2481 7.50553 37.2308 7.67146 37.0924 7.67146C36.9539 7.67146 36.7115 7.43916 36.3653 6.97456C36.1922 6.74226 35.7249 6.57633 34.9633 6.47677C34.2016 6.37721 32.8861 6.31084 31.0167 6.27765C30.1166 6.27765 29.1818 6.29425 28.2125 6.32743C27.2778 6.32743 26.4123 6.34403 25.616 6.37721C24.8544 6.4104 24.1966 6.46018 23.6427 6.52655C23.1234 6.59292 22.8292 6.65929 22.7599 6.72566C22.6907 6.79203 22.5522 7.12389 22.3445 7.72124C22.1368 8.2854 21.8945 8.96571 21.6175 9.76217C21.3752 10.5254 21.1155 11.3053 20.8386 12.1018C20.5962 12.8982 20.4058 13.5288 20.2673 13.9934C19.9904 15.1217 19.7307 16.2998 19.4884 17.5277C19.2461 18.7555 19.0384 19.9336 18.8653 21.0619C18.796 21.5597 18.7441 22.1405 18.7095 22.8042C18.7095 23.5011 18.7095 24.1648 18.7095 24.7954C18.7095 25.4591 18.7268 26.0564 18.7614 26.5874C18.8306 27.1184 18.8999 27.5 18.9691 27.7323C19.0384 27.8982 19.1249 28.0642 19.2288 28.2301C19.3326 28.4292 19.4711 28.5951 19.6442 28.7279C20.025 29.0265 20.2154 29.2423 20.2154 29.375C20.2154 29.5077 20.0596 29.5409 19.7481 29.4746C19.4365 29.4414 19.1249 29.3252 18.8133 29.1261C18.4325 28.8938 18.1209 28.6283 17.8786 28.3296C17.6709 28.0642 17.4632 27.6825 17.2555 27.1847C17.1862 27.0188 17.1343 26.8529 17.0997 26.6869C17.065 26.521 17.0304 26.3053 16.9958 26.0398C16.9612 25.8075 16.9439 25.4757 16.9439 25.0443C16.9439 24.646 16.9439 24.0985 16.9439 23.4016C16.9439 22.6051 16.9612 21.9082 16.9958 21.3108C17.0304 20.7467 17.0824 20.1991 17.1516 19.6681C17.1862 19.104 17.2555 18.5398 17.3593 17.9757C17.4286 17.3783 17.5497 16.698 17.7228 15.9347L18.0344 14.5409L17.6709 14.0929C17.2555 13.6615 17.2035 13.4458 17.5151 13.4458C17.7574 13.4458 17.9998 13.1969 18.2421 12.6991C18.5191 12.1681 18.8999 11.2555 19.3845 9.96128C19.6269 9.2312 19.8346 8.58407 20.0077 8.01991C20.2154 7.45575 20.3539 7.14049 20.4231 7.07411C20.4924 6.97456 20.4751 6.92478 20.3712 6.92478C20.2673 6.89159 19.9558 6.89159 19.4365 6.92478C19.1249 6.95796 18.5191 7.02434 17.619 7.12389C16.7535 7.22345 15.8534 7.32301 14.9186 7.42257C13.9493 7.55531 13.0492 7.65487 12.2183 7.72124C11.3529 7.78761 10.7816 7.8042 10.5047 7.77102C10.0546 7.73783 9.76036 7.70465 9.62189 7.67146C9.44879 7.63827 9.27569 7.53872 9.10259 7.37279C8.54868 6.84181 8.51407 6.37721 8.99874 5.97898C9.24107 5.77987 9.69112 5.54757 10.3489 5.28208C11.0067 5.01659 11.7337 4.7677 12.5299 4.5354C16.3034 3.53982 19.0037 3.67256 20.6308 4.93363C21.0117 5.16593 21.2021 5.28208 21.2021 5.28208C21.2367 5.28208 21.3232 5.16593 21.4617 4.93363C21.6002 4.66814 21.756 4.35288 21.9291 3.98783C22.3099 3.22456 22.708 2.52765 23.1234 1.89712C23.5735 1.23341 23.9543 0.735618 24.2659 0.403759C24.5428 0.138273 24.7852 0.00553119 24.9929 0.00553119C25.2352 -0.0276552 25.4949 0.0884937 25.7718 0.353981L26.0834 0.602875L25.4602 1.44911C25.2871 1.68142 25.0794 1.99668 24.8371 2.39491C24.6294 2.79314 24.4217 3.19137 24.214 3.5896C24.0062 3.95465 23.8158 4.2865 23.6427 4.58518C23.5043 4.88385 23.4523 5.04978 23.4869 5.08296C23.5216 5.11615 23.66 5.13274 23.9024 5.13274C24.1447 5.09956 24.439 5.06637 24.7852 5.03319C25.1314 4.96681 25.7372 4.93363 26.6027 4.93363C27.5028 4.90044 28.4029 4.88385 29.303 4.88385C31.6571 4.88385 33.3708 4.98341 34.444 5.18252C35.5518 5.38164 36.3134 5.74668 36.7289 6.27765ZM15.7495 6.1781C16.9266 6.01217 17.9305 5.87942 18.7614 5.77987C19.6269 5.64712 20.0769 5.56416 20.1116 5.53097C20.1808 5.53097 20.1635 5.51438 20.0596 5.48119C19.9904 5.44801 19.8692 5.39823 19.6961 5.33186C18.7268 5 17.4286 4.96681 15.8014 5.2323C15.4899 5.29867 15.0917 5.39823 14.6071 5.53097C14.0878 5.63053 13.5858 5.74668 13.1011 5.87942C12.5818 6.01217 12.1318 6.14491 11.751 6.27765C11.3355 6.4104 11.0586 6.52655 10.9201 6.62611C10.8163 6.69248 10.7989 6.74226 10.8682 6.77544C10.9374 6.77544 11.1624 6.75885 11.5433 6.72566C11.8895 6.69248 12.4087 6.6427 13.1011 6.57633C13.7589 6.47677 14.6417 6.34403 15.7495 6.1781Z" fill="white"/>
<path d="M32.8163 15.1881C32.9548 15.3208 32.9029 15.4535 32.6605 15.5863C32.5221 15.6858 32.297 15.7854 31.9855 15.885C31.6739 15.9845 31.3104 16.0841 30.8949 16.1836C30.5141 16.2832 30.116 16.3662 29.7006 16.4325C29.3198 16.4989 28.9736 16.5321 28.662 16.5321L27.4157 16.6316L26.7926 17.8761C26.4464 18.5398 26.0482 19.1538 25.5982 19.7179C25.1828 20.2489 24.8019 20.5973 24.4557 20.7633C24.2134 20.8628 23.9365 20.9126 23.6249 20.9126C23.3133 20.9126 23.071 20.8628 22.8979 20.7633C22.1709 20.3982 21.8074 19.8341 21.8074 19.0708C21.7727 18.2743 22.1016 17.1958 22.794 15.8352C23.6595 14.2423 24.3865 13.4458 24.975 13.4458C26.3252 13.4458 27.1214 13.9934 27.3638 15.0885L27.5196 15.8352L28.4024 15.7356C28.9216 15.6692 29.5275 15.5531 30.2199 15.3872C30.9469 15.2212 31.4489 15.0719 31.7258 14.9392C32.1066 14.74 32.4701 14.823 32.8163 15.1881ZM25.3385 17.4281C25.477 17.1626 25.5809 16.9303 25.6501 16.7312C25.754 16.5321 25.8059 16.4159 25.8059 16.3827C25.7713 16.3496 25.7194 16.3164 25.6501 16.2832C25.5809 16.25 25.5116 16.2168 25.4424 16.1836C25.4078 16.1504 25.3558 16.1007 25.2866 16.0343L24.7154 15.7854L24.4557 16.333C24.2826 16.7312 24.0749 17.2622 23.8326 17.9259C23.6249 18.5896 23.4864 19.0708 23.4172 19.3695L23.3652 19.8175L24.0922 19.0708C24.2653 18.8717 24.4731 18.6228 24.7154 18.3241C24.9577 17.9923 25.1654 17.6936 25.3385 17.4281ZM25.5982 15.5365C25.8405 15.6361 25.979 15.6692 26.0136 15.6361C26.0829 15.5697 26.1175 15.354 26.1175 14.9889C26.1175 14.5243 26.0482 14.3418 25.9098 14.4414C25.5636 14.6073 25.3558 14.8064 25.2866 15.0387C25.2174 15.271 25.3212 15.4369 25.5982 15.5365Z" fill="white"/>
<path d="M49.5878 15.885C49.657 15.9845 49.657 16.0841 49.5878 16.1836C49.5532 16.25 49.3974 16.3993 49.1204 16.6316C48.9127 16.8308 48.6531 17.0299 48.3415 17.229C48.0299 17.4281 47.7183 17.6272 47.4068 17.8263C47.1298 18.0254 46.8529 18.1914 46.5759 18.3241C46.2989 18.4569 46.0912 18.5398 45.9527 18.573C45.745 18.6394 45.5719 18.6726 45.4335 18.6726C45.295 18.6394 45.0873 18.5896 44.8103 18.5232C44.0141 18.1914 43.6333 17.677 43.6679 16.9801L43.7198 16.3827L42.6812 17.2788C41.885 17.9757 41.2964 18.3905 40.9156 18.5232C40.5694 18.6228 40.1713 18.49 39.7213 18.125C39.5482 17.9923 39.4443 17.8761 39.4097 17.7765C39.3751 17.677 39.3751 17.4447 39.4097 17.0796C39.4443 16.8142 39.5482 16.3661 39.7213 15.7356C39.929 15.0719 40.2059 14.2588 40.5521 13.2965L41.5907 10.3595L40.0328 11.9027C39.1327 12.7655 38.2326 13.7279 37.3325 14.7898C36.4324 15.8186 35.4285 17.0796 34.3206 18.573C33.8013 19.2367 33.3859 19.7511 33.0743 20.1162C32.7974 20.4812 32.5724 20.7467 32.3993 20.9126C32.2262 21.0785 32.0704 21.1615 31.9319 21.1615C31.7934 21.1615 31.6203 21.1283 31.4126 21.0619C30.7895 20.8296 30.4779 20.4148 30.4779 19.8175C30.4779 19.4524 30.5817 18.9215 30.7895 18.2246C30.9626 17.4945 31.1876 16.7312 31.4645 15.9347C31.7761 15.1383 32.0877 14.3916 32.3993 13.6947C32.7108 12.9646 32.9878 12.4336 33.2301 12.1018C33.5763 11.604 34.0437 11.5708 34.6322 12.0022C35.0476 12.3009 35.0996 12.6659 34.788 13.0973C34.7188 13.1637 34.5803 13.4458 34.3726 13.9436C34.1995 14.4414 34.0091 14.9723 33.8013 15.5365C33.5936 16.0675 33.4205 16.5653 33.2821 17.0299C33.1436 17.4613 33.0917 17.6604 33.1263 17.6272C33.1609 17.594 33.2821 17.4447 33.4898 17.1792C33.6975 16.9137 33.9571 16.5985 34.2687 16.2334C34.9265 15.4369 35.6016 14.6405 36.2939 13.844C37.021 13.0476 37.696 12.3175 38.3192 11.6538C38.9769 10.99 39.5655 10.4259 40.0848 9.96128C40.6041 9.49668 41.0022 9.19801 41.2791 9.06527C41.6946 8.83297 42.0927 8.83297 42.4735 9.06527C42.8889 9.29757 43.0966 9.64602 43.0966 10.1106C43.0966 10.4425 42.9755 11.0232 42.7332 11.8529C42.5254 12.6825 42.2139 13.6947 41.7984 14.8894L41.2272 16.7312L42.11 15.9347C42.7678 15.3706 43.2697 14.9889 43.6159 14.7898C43.9621 14.5575 44.2218 14.4746 44.3949 14.5409C44.9488 14.7069 45.2777 14.906 45.3815 15.1383C45.4854 15.3706 45.4161 15.8684 45.1738 16.6316C45.1046 16.9635 45.0353 17.2456 44.9661 17.4779C44.8969 17.7102 44.8795 17.8263 44.9142 17.8263C44.9488 17.8595 45.07 17.8263 45.2777 17.7268C45.52 17.6272 45.7797 17.4945 46.0566 17.3285C46.3682 17.1626 46.6798 16.9801 46.9913 16.781C47.3375 16.5819 47.6318 16.3993 47.8741 16.2334C48.3934 15.8684 48.7569 15.6692 48.9646 15.6361C49.1723 15.5697 49.3801 15.6527 49.5878 15.885Z" fill="white"/>
<path d="M65.5969 15.6858C65.9431 15.7522 66.1162 15.8518 66.1162 15.9845C66.1162 16.0841 65.9085 16.3164 65.4931 16.6814C65.0777 17.0465 64.5757 17.4613 63.9871 17.9259C63.3986 18.3905 62.7582 18.8717 62.0658 19.3695C61.3734 19.8341 60.7502 20.2323 60.1963 20.5642C58.4307 21.5929 56.9421 21.9248 55.7304 21.5597C55.3842 21.4602 55.038 21.2445 54.6918 20.9126C54.3456 20.5808 54.1206 20.2323 54.0168 19.8673C53.9129 19.4027 53.8783 18.656 53.9129 17.6272C53.9475 17.1626 53.9648 16.7644 53.9648 16.4325C53.9648 16.1007 53.9475 15.9513 53.9129 15.9845C53.8783 16.0177 53.7571 16.167 53.5494 16.4325C52.7532 17.5277 52.0088 18.49 51.3165 19.3197C50.6241 20.1162 50.1913 20.5642 50.0182 20.6637C49.7066 20.8628 49.3605 20.9624 48.9796 20.9624C48.6334 20.9624 48.3046 20.896 47.993 20.7633C47.6814 20.6305 47.4218 20.448 47.2141 20.2157C47.0063 19.9502 46.9025 19.6681 46.9025 19.3695C46.9025 19.104 46.989 18.7223 47.1621 18.2246C47.3352 17.6936 47.5083 17.2954 47.6814 17.0299C48.8585 15.2046 50.2606 14.5409 51.8877 15.0387L52.4589 15.2378L53.2898 14.3916C53.6706 14.0265 53.9302 13.7942 54.0687 13.6947C54.2072 13.5951 54.3976 13.5454 54.6399 13.5454C54.9861 13.5454 55.2804 13.6283 55.5227 13.7942C55.6958 13.927 55.7997 14.0597 55.8343 14.1925C55.8689 14.292 55.8862 14.5409 55.8862 14.9392C55.8862 15.2046 55.8689 15.5697 55.8343 16.0343C55.8343 16.4989 55.7997 16.9469 55.7304 17.3783C55.6266 19.1704 55.7477 20.2821 56.0939 20.7135L56.3016 20.9624L57.2883 20.6139C57.6691 20.4812 58.1711 20.2489 58.7942 19.917C59.452 19.552 60.1271 19.1538 60.8195 18.7223C61.5119 18.2577 62.1869 17.7931 62.8447 17.3285C63.5025 16.8639 64.0391 16.4491 64.4545 16.0841C64.8007 15.8186 65.0257 15.6692 65.1296 15.6361C65.2334 15.6029 65.3892 15.6195 65.5969 15.6858ZM50.8491 17.1792C51.0568 16.9137 51.2299 16.698 51.3684 16.5321C51.5069 16.3661 51.5588 16.2666 51.5242 16.2334C51.4549 16.2002 51.2645 16.3661 50.9529 16.7312C50.676 17.0631 50.451 17.3783 50.2779 17.677C50.1048 17.9757 50.0528 18.0918 50.1221 18.0254C50.2259 17.9259 50.4683 17.6438 50.8491 17.1792Z" fill="white"/>
<path d="M75.7442 15.5863C76.0904 15.719 76.2116 15.8684 76.1077 16.0343C76.0038 16.2002 75.6403 16.4657 75.0172 16.8308C74.671 16.9967 74.2209 17.2788 73.667 17.677C73.1477 18.042 72.6804 18.4071 72.265 18.7721L70.759 20.0166L71.0706 20.5144C71.2783 20.7799 71.4514 21.1283 71.5899 21.5597C71.7283 22.0243 71.7976 22.4226 71.7976 22.7544C71.7976 23.5177 71.5553 24.3971 71.0706 25.3927C70.6205 26.3883 70.0147 27.2677 69.2531 28.031C68.4568 28.8606 67.6606 29.4248 66.8643 29.7235C66.0681 30.0553 65.3584 30.0885 64.7352 29.823C63.9736 29.4912 63.5928 28.9934 63.5928 28.3296C63.5928 27.3673 63.9736 26.2389 64.7352 24.9447C65.4969 23.6504 66.5354 22.3396 67.851 21.0122L69.2011 19.6184L68.6299 19.3197C68.4568 19.2201 68.1799 19.0708 67.799 18.8717C67.4182 18.6726 67.0374 18.49 66.6566 18.3241C65.3065 17.6604 64.5275 17.0465 64.3198 16.4823C64.1121 15.9181 64.441 15.2544 65.3065 14.4912C65.9988 13.8274 66.5008 13.4458 66.8124 13.3462C67.1586 13.2135 67.5221 13.2799 67.9029 13.5454L68.2145 13.844L67.5913 14.74C66.7605 15.802 66.345 16.5487 66.345 16.9801C66.345 17.0465 66.345 17.1128 66.345 17.1792C66.3797 17.2124 66.4662 17.2788 66.6047 17.3783C66.7432 17.4447 66.9336 17.5608 67.1759 17.7268C67.4529 17.8595 67.851 18.0586 68.3703 18.3241L69.7724 19.0708L70.2397 18.7223C71.9361 17.4281 73.1824 16.5487 73.9786 16.0841C74.7749 15.6195 75.3634 15.4535 75.7442 15.5863ZM70.1878 23.7002C70.257 23.3352 70.2916 22.8706 70.2916 22.3064C70.3263 21.7754 70.2916 21.3772 70.1878 21.1117L70.032 20.7633L69.5127 21.2113C69.305 21.4104 69.0453 21.6759 68.7338 22.0077C68.4222 22.3396 68.0933 22.6881 67.7471 23.0531C67.4356 23.4181 67.124 23.7666 66.8124 24.0985C66.5354 24.4635 66.3277 24.7456 66.1893 24.9447C65.393 26.1394 64.943 27.2179 64.8391 28.1803C64.8045 28.6117 64.7872 28.8606 64.7872 28.927C64.8218 29.0265 64.9257 29.0763 65.0987 29.0763C65.3065 29.0763 65.5834 28.9934 65.9296 28.8274C66.8989 28.3628 67.7644 27.6493 68.5261 26.6869C69.3223 25.7577 69.8762 24.7622 70.1878 23.7002Z" fill="white"/>
<path d="M79.9703 24.2976C80.0396 24.4303 79.9876 24.6294 79.8145 24.8949C79.6761 25.1936 79.5203 25.4093 79.3472 25.542C78.9317 25.8407 78.3951 25.8573 77.7374 25.5918C77.4604 25.4591 77.2527 25.2766 77.1142 25.0443C77.0104 24.8119 77.0277 24.5796 77.1662 24.3473C77.3393 24.0155 77.8239 23.833 78.6202 23.7998C78.9664 23.7998 79.2606 23.833 79.503 23.8993C79.7453 23.9989 79.9011 24.1316 79.9703 24.2976Z" fill="white"/>
</svg>
